PathFileType	4	(X/Y/Z)	/Users/itak/Documents/Research/Walk-IL/dataset/trc/00428_00167.trc
DataRate	CameraRate	NumFrames	NumMarkers	Units	OrigDataRate	OrigDataStartFrame	OrigNumFrames
100.000000	100.000000	4	53	mm	100.000000	196	786
Frame#	Time	RPSI			LPSI			L3			STRN			T10			C7			CLAV			RBAK			LBAK			LSHO			LUPA			LAEL			LAOL			LWTS			LWPS			LFRA			LIFD			LHPS			LHTS			RSHO			RUPA			RAEL			RAOL			RWTS			RWPS			RFRA			RIFD			RHTS			RHPS			RBHD			LFHD			RFHD			LBHD			LHIP			RHIP			RASI			LASI			LKNE			LTHI			LANK			LTIP			LTOE			LMT1			LMT5			LHEE			RKNE			RTHI			RANK			RTIP			RTOE			RMT1			RMT5			RHEE			
		X1	Y1	Z1	X2	Y2	Z2	X3	Y3	Z3	X4	Y4	Z4	X5	Y5	Z5	X6	Y6	Z6	X7	Y7	Z7	X8	Y8	Z8	X9	Y9	Z9	X10	Y10	Z10	X11	Y11	Z11	X12	Y12	Z12	X13	Y13	Z13	X14	Y14	Z14	X15	Y15	Z15	X16	Y16	Z16	X17	Y17	Z17	X18	Y18	Z18	X19	Y19	Z19	X20	Y20	Z20	X21	Y21	Z21	X22	Y22	Z22	X23	Y23	Z23	X24	Y24	Z24	X25	Y25	Z25	X26	Y26	Z26	X27	Y27	Z27	X28	Y28	Z28	X29	Y29	Z29	X30	Y30	Z30	X31	Y31	Z31	X32	Y32	Z32	X33	Y33	Z33	X34	Y34	Z34	X35	Y35	Z35	X36	Y36	Z36	X37	Y37	Z37	X38	Y38	Z38	X39	Y39	Z39	X40	Y40	Z40	X41	Y41	Z41	X42	Y42	Z42	X43	Y43	Z43	X44	Y44	Z44	X45	Y45	Z45	X46	Y46	Z46	X47	Y47	Z47	X48	Y48	Z48	X49	Y49	Z49	X50	Y50	Z50	X51	Y51	Z51	X52	Y52	Z52	X53	Y53	Z53	

197	1.96	-1058.35302734375	937.265380859375	-415.1723937988281	-990.2362670898438	944.8397216796875	-539.82666015625	-1017.519775390625	1045.7412109375	-469.6419067382812	-767.14306640625	1227.567260742188	-348.1627197265625	-1022.475646972656	1169.6865234375	-483.6842956542969	-962.483642578125	1434.83935546875	-433.1914978027344	-795.68603515625	1342.96826171875	-363.38525390625	-1065.544311523438	1315.873168945312	-384.6558837890625	-943.1345825195312	1392.299682617188	-539.0202026367188	-812.3594360351562	1408.01220703125	-557.1494140625	-772.3673095703125	1293.213134765625	-653.4176025390625	-741.8639526367188	1075.485595703125	-679.8079833984375	-844.454833984375	1062.861450195312	-667.478759765625	-702.5413818359375	867.7389526367188	-611.3483276367188	-713.0306396484375	855.854248046875	-684.0785522460938	-721.7811889648438	987.1797485351562	-682.3733520507812	-704.4862670898438	699.3690795898438	-619.6470336914062	-711.914794921875	774.7549438476562	-683.2314453125	-688.8527221679688	777.0997314453125	-615.4096069335938	-976.0365600585938	1393.306518554688	-259.1890869140625	-1030.767822265625	1332.182373046875	-205.2406463623047	-1086.986328125	1050.928588867188	-164.7569122314453	-1109.104614257812	1036.214477539062	-227.7530975341797	-992.35791015625	843.1755981445312	-143.3517303466797	-1079.529541015625	833.99755859375	-134.8745727539062	-1093.3984375	992.701416015625	-155.4027709960938	-1007.743469238281	684.4235229492188	-134.7201080322266	-995.1053466796875	743.2001342773438	-123.7253570556641	-1070.54150390625	747.0478515625	-125.3717727661133	-936.7692260742188	1622.112060546875	-319.7264709472656	-744.0341186523438	1649.566772460938	-391.4261779785156	-807.3632202148438	1648.90625	-277.0725402832031	-864.503173828125	1627.021240234375	-482.6161193847656	-820.6895141601562	838.5955200195312	-583.4134521484375	-1003.856018066406	857.9298095703125	-222.3141326904297	-890.4317626953125	904.6243286132812	-251.6886444091797	-763.5169067382812	875.6590576171875	-470.9706420898438	-895.8624267578125	419.2692565917969	-542.167236328125	-840.4403686523438	569.1227416992188	-548.782958984375	-1041.259399414062	36.74854278564453	-579.93017578125	-933.3599243164062	267.3931579589844	-554.6989135742188	-894.32958984375	41.58797454833984	-396.7144470214844	-971.4087524414062	49.8924674987793	-417.3013000488281	-907.0502319335938	43.96062088012695	-511.7259521484375	-1115.644409179688	42.43262100219727	-569.5814819335938	-821.2556762695312	518.7059326171875	-121.1318054199219	-921.5264282226562	755.2564697265625	-167.0063934326172	-821.2313842773438	82.57518005371094	-87.4718017578125	-820.8616943359375	372.5744934082031	-89.50453186035156	-617.1517333984375	122.2483367919922	-26.70747756958008	-653.6870727539062	111.7145309448242	-89.79937744140625	-717.4579467773438	100.9998474121094	-6.655399322509766	-854.7978515625	66.76237487792969	-160.1759338378906	
198	1.97	-1054.612548828125	936.2439575195312	-411.5746765136719	-986.8349609375	943.8878784179688	-536.3466796875	-1014.088500976562	1044.619995117188	-466.129638671875	-763.7433471679688	1226.469360351562	-344.7176513671875	-1019.047668457031	1168.53857421875	-480.32470703125	-959.0824584960938	1433.696655273438	-429.8369750976562	-792.3403930664062	1341.867553710938	-359.8905334472656	-1062.151489257812	1314.682983398438	-381.4998474121094	-939.6107177734375	1391.192993164062	-535.6615600585938	-808.8158569335938	1406.968139648438	-553.62548828125	-768.63525390625	1292.269653320312	-649.9512329101562	-738.011474609375	1074.662719726562	-676.6787109375	-840.6039428710938	1061.9619140625	-664.4588012695312	-698.7495727539062	866.740966796875	-608.7152099609375	-709.2024536132812	855.0480346679688	-681.4863891601562	-717.9356689453125	986.3552856445312	-679.45751953125	-700.7839965820312	698.3445434570312	-617.4219970703125	-708.1766357421875	774.051513671875	-680.9192504882812	-685.125	776.0697021484375	-613.0247192382812	-972.8563842773438	1392.103149414062	-255.8790893554688	-1027.755004882812	1330.976440429688	-202.1127166748047	-1084.337890625	1049.730346679688	-162.04736328125	-1106.3076171875	1035.10595703125	-225.1020812988281	-989.9727172851562	841.8511962890625	-140.6398620605469	-1077.1982421875	832.7599487304688	-132.3487396240234	-1090.855224609375	991.50390625	-152.7456665039062	-1005.54931640625	683.1119384765625	-132.1817169189453	-992.8685302734375	741.87646484375	-121.0930252075195	-1068.297607421875	745.8014526367188	-122.9366836547852	-933.5549926757812	1620.916015625	-316.2029113769531	-740.7360229492188	1648.461181640625	-387.7299499511719	-804.2156372070312	1647.731323242188	-273.4180908203125	-861.1162719726562	1625.936401367188	-479.0429992675781	-817.481689453125	837.7515869140625	-580.3939208984375	-999.9545288085938	856.5819091796875	-218.9674987792969	-886.3806762695312	903.4622802734375	-248.2665710449219	-759.9037475585938	874.7110595703125	-467.9613647460938	-893.2877807617188	418.4977416992188	-539.8892211914062	-837.370849609375	568.4298706054688	-545.9904174804688	-1041.22216796875	36.91677474975586	-579.8108520507812	-931.8309936523438	266.7652282714844	-553.2525024414062	-894.3820190429688	41.57646179199219	-396.6504516601562	-971.3846435546875	49.85085678100586	-417.2762145996094	-907.0359497070312	43.95427703857422	-511.7247314453125	-1115.651977539062	42.71932220458984	-569.4983520507812	-818.7401123046875	515.6698608398438	-119.2730941772461	-918.1835327148438	753.3104248046875	-164.0729675292969	-807.9093017578125	80.25006103515625	-78.37484741210938	-814.81396484375	370.2666015625	-85.34293365478516	-604.2399291992188	125.2753524780273	-19.5819206237793	-641.097900390625	113.2389373779297	-82.32470703125	-703.891845703125	101.9852142333984	1.416588544845581	-841.6417236328125	62.69887924194336	-150.6178283691406	
199	1.98	-1050.80224609375	935.1991577148438	-407.8819885253906	-983.3739013671875	942.919921875	-532.7664184570312	-1010.569641113281	1043.432495117188	-462.489501953125	-760.2573852539062	1225.321533203125	-341.169921875	-1015.553466796875	1167.333374023438	-476.842041015625	-955.6223754882812	1432.491577148438	-426.3647766113281	-788.9207153320312	1340.713745117188	-356.29541015625	-1058.685180664062	1313.424194335938	-378.1962890625	-936.0336303710938	1390.017700195312	-532.1866455078125	-805.2315673828125	1405.849365234375	-549.9990844726562	-764.8568725585938	1291.234375	-646.3741455078125	-734.1139526367188	1073.75634765625	-673.42333984375	-836.708984375	1060.98095703125	-661.3146362304688	-694.8981323242188	865.6610107421875	-605.9649658203125	-705.3234252929688	854.1644897460938	-678.776611328125	-714.0429077148438	985.4515380859375	-676.4132690429688	-697.078125	697.1997680664062	-615.0899658203125	-704.365234375	773.2333984375	-678.468017578125	-681.347412109375	774.958740234375	-610.5323486328125	-969.5891723632812	1390.853637695312	-252.44775390625	-1024.649780273438	1329.724731445312	-198.8345489501953	-1081.578247070312	1048.486328125	-159.1914978027344	-1103.399780273438	1033.957763671875	-222.3077087402344	-987.488037109375	840.4692993164062	-137.8165435791016	-1074.771362304688	831.4725341796875	-129.6886901855469	-1088.19873046875	990.2615966796875	-149.9438323974609	-1003.277404785156	681.7388305664062	-129.5402069091797	-990.539794921875	740.4896850585938	-118.3490753173828	-1065.96533203125	744.4978637695312	-120.3784027099609	-930.2350463867188	1619.66162109375	-312.5653991699219	-737.37255859375	1647.295776367188	-383.9390563964844	-800.9910278320312	1646.48974609375	-269.6571655273438	-857.6571655273438	1624.806884765625	-475.3701477050781	-814.1536254882812	836.8683471679688	-577.2811279296875	-995.9423217773438	855.1773071289062	-215.5202331542969	-882.2208862304688	902.2108154296875	-244.7446899414062	-756.2101440429688	873.6986694335938	-464.8628234863281	-890.6727294921875	417.6947326660156	-537.6024780273438	-834.2789306640625	567.7088012695312	-543.1654052734375	-1041.191528320312	37.11077499389648	-579.7075805664062	-930.3134765625	266.126953125	-551.8048095703125	-894.4227294921875	41.56839752197266	-396.5916137695312	-971.358642578125	49.81562423706055	-417.25048828125	-907.0206298828125	43.94345855712891	-511.7322387695312	-1115.6533203125	43.04030227661133	-569.4149169921875	-816.2466430664062	512.5341796875	-117.360221862793	-914.7973022460938	751.2890625	-161.0411071777344	-794.5916137695312	78.14590454101562	-69.42072296142578	-808.7780151367188	367.9609985351562	-81.21469879150391	-591.3882446289062	128.4594268798828	-12.97168922424316	-628.6214599609375	114.9425964355469	-75.29006958007812	-690.2971801757812	103.129020690918	9.133662223815918	-828.5653686523438	58.931640625	-141.1399993896484	
200	1.99	-1046.923461914062	934.1305541992188	-404.0834655761719	-979.8408203125	941.9299926757812	-529.0765380859375	-1006.952331542969	1042.17919921875	-458.7239685058594	-756.6829833984375	1224.12255859375	-337.5190124511719	-1011.998718261719	1166.067504882812	-473.2293701171875	-952.1010131835938	1431.222900390625	-422.7713928222656	-785.4266357421875	1339.505615234375	-352.5971984863281	-1055.144775390625	1312.091796875	-374.7380676269531	-932.4061889648438	1388.773193359375	-528.5904541015625	-801.6077270507812	1404.654052734375	-546.2659912109375	-761.0369262695312	1290.11376953125	-642.68359375	-730.1785888671875	1072.767333984375	-670.043212890625	-832.7749633789062	1059.918823242188	-658.0450439453125	-690.99072265625	864.4992065429688	-603.096435546875	-701.3936157226562	853.2017211914062	-675.9457397460938	-710.1084594726562	984.4688110351562	-673.237548828125	-693.360107421875	695.9571533203125	-612.6516723632812	-700.4767456054688	772.2695922851562	-675.8623046875	-677.5105590820312	773.7745361328125	-607.9263916015625	-966.238037109375	1389.55615234375	-248.8880920410156	-1021.448913574219	1328.425537109375	-195.3995513916016	-1078.704956054688	1047.192749023438	-156.1795806884766	-1100.371459960938	1032.768432617188	-219.3665313720703	-984.9039306640625	839.0244750976562	-134.8752899169922	-1072.24609375	830.13134765625	-126.8946151733398	-1085.423950195312	988.9700927734375	-146.9952697753906	-1000.930419921875	680.3009033203125	-126.7938995361328	-988.1224365234375	739.033935546875	-115.4929351806641	-1063.550537109375	743.1328735351562	-117.6956939697266	-926.8104858398438	1618.349975585938	-308.8103942871094	-733.9425659179688	1646.070434570312	-380.0545654296875	-797.675048828125	1645.183471679688	-265.7975769042969	-854.1327514648438	1623.628173828125	-471.5956726074219	-810.7098388671875	835.9512939453125	-574.0805053710938	-991.8206787109375	853.7197875976562	-211.9744873046875	-877.9527587890625	900.8668823242188	-241.1264495849609	-752.45166015625	872.620849609375	-461.6840209960938	-888.0205688476562	416.86767578125	-535.3128662109375	-831.1787719726562	566.9586181640625	-540.3161010742188	-1041.173706054688	37.33220672607422	-579.6250610351562	-928.8027954101562	265.4857788085938	-550.358642578125	-894.4498291015625	41.56318283081055	-396.5382385253906	-971.33056640625	49.78469467163086	-417.2247314453125	-907.0042724609375	43.92737579345703	-511.7476196289062	-1115.645874023438	43.397216796875	-569.3360595703125	-813.7636108398438	509.3326416015625	-115.3857574462891	-911.3568725585938	749.2020263671875	-157.9022674560547	-781.3411865234375	76.27040100097656	-60.65411376953125	-802.7728271484375	365.671630859375	-77.13014984130859	-578.6732788085938	131.7887725830078	-6.880985260009766	-616.314453125	116.8050384521484	-68.70368957519531	-676.7582397460938	104.4421310424805	16.47920608520508	-815.6213989257812	55.46194458007812	-131.7881011962891	
